<svg width="22" height="22" viewBox="0 0 22 22" fill="none" xmlns="http://www.w3.org/2000/svg">
<path d="M19.3457 7.10295C19.3457 7.76793 19.0815 8.40568 18.6113 8.87589C18.1411 9.3461 17.5033 9.61027 16.8384 9.61027C16.1734 9.61027 15.5356 9.3461 15.0654 8.87589C14.5952 8.40568 14.3311 7.76793 14.3311 7.10295C14.3311 6.43797 14.5952 5.80023 15.0654 5.33002C15.5356 4.8598 16.1734 4.59564 16.8384 4.59564C17.5033 4.59564 18.1411 4.8598 18.6113 5.33002C19.0815 5.80023 19.3457 6.43797 19.3457 7.10295Z" fill="#8C8C8C"/>
<path d="M1.13209 2.15218V6.69965H0.452156C0.421509 6.69974 0.391145 6.69378 0.362808 6.6821C0.334472 6.67042 0.30872 6.65327 0.287033 6.63161C0.265346 6.60996 0.248149 6.58423 0.236432 6.55591C0.224714 6.52759 0.218705 6.49724 0.21875 6.46659V0.598775C0.21875 0.400088 0.366906 0.238525 0.570063 0.238525H3.57684C3.77966 0.238525 3.92816 0.399744 3.92816 0.598088V0.942525H8.57669C8.70662 0.942525 8.81044 1.04668 8.81044 1.1749V2.49421H4.84219V2.14874C4.84219 1.9504 4.69369 1.78918 4.49019 1.78918H1.48444C1.28094 1.78918 1.13244 1.95315 1.13244 2.15218H1.13209Z" fill="#8C8C8C"/>
<path d="M10.6376 9.45308C10.6376 9.48371 10.6315 9.51404 10.6198 9.54232C10.608 9.5706 10.5908 9.59628 10.569 9.61788C10.5473 9.63947 10.5215 9.65656 10.4932 9.66816C10.4648 9.67976 10.4345 9.68563 10.4038 9.68545H2.2793C2.24867 9.68559 2.21832 9.67967 2.18998 9.66803C2.16165 9.65639 2.13589 9.63926 2.1142 9.61764C2.09251 9.59601 2.07531 9.5703 2.06359 9.542C2.05186 9.5137 2.04585 9.48336 2.0459 9.45273V3.58492C2.0459 3.38623 2.19405 3.22467 2.39721 3.22467H5.4033C5.6068 3.22467 5.7553 3.38589 5.7553 3.58423V3.92867H10.4038C10.5334 3.92867 10.6376 4.03283 10.6376 4.16105V9.45308ZM7.03371 6.11217V4.72823H5.64909V6.11217H4.2648V7.4968H5.64909V8.88108H7.03371V7.4968H8.41799V6.11217H7.03371Z" fill="#8C8C8C"/>
<path d="M19.3151 10.2562C19.6453 10.2559 19.9723 10.3207 20.2774 10.4468C20.5825 10.573 20.8598 10.758 21.0934 10.9914C21.327 11.2248 21.5123 11.5019 21.6387 11.8069C21.7652 12.1119 21.8303 12.4388 21.8303 12.769L21.8355 21.9584H13.3985V14.3406H13.0568L11.501 16.6619C11.2476 17.0074 10.7334 17.1748 10.3233 17.1748H6.6706C6.37932 17.1749 6.09991 17.0594 5.89378 16.8535C5.68765 16.6477 5.57165 16.3685 5.57129 16.0772C5.57129 15.4722 6.06388 14.9944 6.6706 14.9944H9.99294L12.2978 11.5095C12.8499 10.6666 13.9299 10.2593 14.7993 10.2593L19.3148 10.2565L19.3151 10.2562Z" fill="#8C8C8C"/>
</svg>
