<svg width="19" height="16" viewBox="0 0 19 16" fill="none" xmlns="http://www.w3.org/2000/svg">
<path d="M18.6598 10.4576L17.2132 5.6884C16.7499 4.02035 15.7427 2.55488 14.3514 1.52465C12.9601 0.494421 11.2646 -0.0415051 9.53393 0.00196195C7.8033 0.045429 6.13678 0.665797 4.79898 1.76457C3.46118 2.86334 2.52879 4.37753 2.14984 6.06673L1.02651 10.6809C0.877201 11.294 0.869112 11.9331 1.00285 12.5498C1.13659 13.1665 1.40866 13.7448 1.79853 14.241C2.18839 14.7372 2.68588 15.1383 3.25344 15.4142C3.82099 15.6901 4.44379 15.8334 5.07484 15.8334H14.6723C15.323 15.8334 15.9645 15.6811 16.5457 15.3886C17.1268 15.0961 17.6314 14.6716 18.019 14.149C18.4066 13.6265 18.6665 13.0204 18.7778 12.3794C18.889 11.7384 18.8486 11.0802 18.6598 10.4576Z" fill="#0052A8"/>
</svg>
