<svg width="22" height="22" viewBox="0 0 22 22" fill="none" xmlns="http://www.w3.org/2000/svg">
<path d="M11 15.8125C10.8803 15.8125 10.7627 15.7812 10.6588 15.7218L4.64063 12.2822C4.58833 12.252 4.52901 12.2361 4.46862 12.2361C4.40824 12.2362 4.34893 12.2521 4.29666 12.2823C4.24438 12.3126 4.201 12.356 4.17086 12.4084C4.14073 12.4607 4.12491 12.52 4.125 12.5804V15.8125C4.1249 15.9352 4.15764 16.0557 4.21982 16.1615C4.28201 16.2673 4.37137 16.3545 4.47863 16.4141L10.6661 19.8516C10.7683 19.9083 10.8832 19.9381 11 19.9381C11.1168 19.9381 11.2317 19.9083 11.3339 19.8516L17.5214 16.4141C17.6286 16.3545 17.718 16.2673 17.7802 16.1615C17.8424 16.0557 17.8751 15.9352 17.875 15.8125V12.5804C17.8751 12.52 17.8593 12.4607 17.8291 12.4084C17.799 12.356 17.7556 12.3126 17.7033 12.2823C17.6511 12.2521 17.5918 12.2362 17.5314 12.2361C17.471 12.2361 17.4117 12.252 17.3594 12.2822L11.3412 15.7218C11.2373 15.7812 11.1197 15.8125 11 15.8125Z" fill="#8C8C8C"/>
<path d="M21.3089 8.18551V8.18078C21.2978 8.07181 21.2608 7.96706 21.201 7.87528C21.1412 7.7835 21.0603 7.70733 20.9651 7.65313L11.3401 2.15313C11.2362 2.09374 11.1186 2.0625 10.999 2.0625C10.8793 2.0625 10.7617 2.09374 10.6578 2.15313L1.03279 7.65313C0.927593 7.71327 0.840164 7.80015 0.779357 7.90496C0.718549 8.00977 0.686523 8.12879 0.686523 8.24996C0.686523 8.37113 0.718549 8.49015 0.779357 8.59496C0.840164 8.69978 0.927593 8.78665 1.03279 8.8468L10.6578 14.3468C10.7617 14.4062 10.8793 14.4374 10.999 14.4374C11.1186 14.4374 11.2362 14.4062 11.3401 14.3468L19.8084 9.50809C19.8215 9.50053 19.8364 9.49656 19.8515 9.49657C19.8666 9.49659 19.8814 9.50059 19.8945 9.50817C19.9076 9.51575 19.9184 9.52665 19.9259 9.53976C19.9335 9.55287 19.9374 9.56774 19.9373 9.58285V15.7931C19.9373 16.1631 20.2218 16.4806 20.5917 16.4991C20.6847 16.5036 20.7776 16.4891 20.8648 16.4567C20.952 16.4242 21.0317 16.3743 21.0991 16.3101C21.1665 16.2459 21.2201 16.1687 21.2568 16.0832C21.2934 15.9976 21.3123 15.9055 21.3123 15.8125V8.24996C21.3123 8.22843 21.3111 8.20692 21.3089 8.18551V8.18551Z" fill="#8C8C8C"/>
</svg>
