<svg width="114" height="20" viewBox="0 0 114 20" fill="none" xmlns="http://www.w3.org/2000/svg">
<path d="M8.00513 16.09C6.80513 16.09 5.71313 15.808 4.72913 15.244C3.74513 14.668 2.97113 13.894 2.40713 12.922C1.84313 11.938 1.56113 10.846 1.56113 9.646C1.56113 8.446 1.84313 7.36 2.40713 6.388C2.97113 5.404 3.74513 4.63 4.72913 4.066C5.71313 3.502 6.80513 3.22 8.00513 3.22C9.20513 3.22 10.2911 3.502 11.2631 4.066C12.2471 4.63 13.0211 5.404 13.5851 6.388C14.1491 7.36 14.4311 8.446 14.4311 9.646C14.4311 10.846 14.1491 11.938 13.5851 12.922C13.0211 13.894 12.2471 14.668 11.2631 15.244C10.2791 15.808 9.19313 16.09 8.00513 16.09ZM8.00513 15.19C9.03713 15.19 9.96713 14.95 10.7951 14.47C11.6351 13.978 12.2951 13.312 12.7751 12.472C13.2551 11.62 13.4951 10.678 13.4951 9.646C13.4951 8.614 13.2551 7.678 12.7751 6.838C12.2951 5.998 11.6351 5.338 10.7951 4.858C9.96713 4.366 9.03713 4.12 8.00513 4.12C6.97313 4.12 6.03713 4.366 5.19713 4.858C4.35713 5.338 3.69713 5.998 3.21713 6.838C2.73713 7.678 2.49713 8.614 2.49713 9.646C2.49713 10.678 2.73713 11.62 3.21713 12.472C3.69713 13.312 4.35713 13.978 5.19713 14.47C6.03713 14.95 6.97313 15.19 8.00513 15.19ZM8.14913 13.534C7.02113 13.534 6.12113 13.186 5.44913 12.49C4.77713 11.782 4.44113 10.834 4.44113 9.646C4.44113 8.458 4.77713 7.516 5.44913 6.82C6.13313 6.124 7.03313 5.776 8.14913 5.776C9.09713 5.776 9.89513 6.034 10.5431 6.55C10.6511 6.622 10.7231 6.706 10.7591 6.802C10.8071 6.886 10.8311 6.994 10.8311 7.126C10.8311 7.294 10.7831 7.45 10.6871 7.594C10.5911 7.738 10.4591 7.81 10.2911 7.81C10.1831 7.81 10.0751 7.786 9.96713 7.738C9.87113 7.69 9.81113 7.66 9.78713 7.648C9.49913 7.468 9.24113 7.33 9.01313 7.234C8.78513 7.138 8.52113 7.09 8.22113 7.09C7.53713 7.09 7.02113 7.306 6.67313 7.738C6.32513 8.158 6.15113 8.794 6.15113 9.646C6.15113 11.362 6.84113 12.22 8.22113 12.22C8.52113 12.22 8.78513 12.172 9.01313 12.076C9.24113 11.98 9.49913 11.842 9.78713 11.662C9.81113 11.65 9.87113 11.62 9.96713 11.572C10.0751 11.524 10.1831 11.5 10.2911 11.5C10.4591 11.5 10.5911 11.572 10.6871 11.716C10.7831 11.86 10.8311 12.016 10.8311 12.184C10.8311 12.316 10.8071 12.43 10.7591 12.526C10.7231 12.61 10.6511 12.688 10.5431 12.76C9.90713 13.276 9.10913 13.534 8.14913 13.534Z" fill="black"/>
<g clip-path="url(#clip0_31_953)">
<path fill-rule="evenodd" clip-rule="evenodd" d="M81.8251 1.00681C81.2252 1.05836 80.6795 1.33358 80.3169 1.77713C79.7815 2.42376 79.6763 3.37294 80.0491 4.14672C80.5914 5.2644 82.1945 5.63597 83.2756 4.88954C84.1365 4.29792 84.4009 3.18024 83.9229 2.18625C83.5501 1.41939 82.6926 0.9378 81.8251 1.00665V1.00681Z" fill="black"/>
<path fill-rule="evenodd" clip-rule="evenodd" d="M25.0803 1.07227C24.7516 1.15132 24.3618 1.38174 24.1042 1.64313C23.8466 1.90451 23.6398 2.28284 23.545 2.66808C23.4671 2.97756 23.4942 3.56572 23.5959 3.87174C23.8771 4.69377 24.5923 5.22329 25.4971 5.27155C27.151 5.36444 28.2492 3.88903 27.6628 2.3586C27.5476 2.05258 27.29 1.69485 27.046 1.49539C26.8358 1.32344 26.4732 1.14111 26.192 1.06897C25.9412 1.00358 25.3514 1.00358 25.0803 1.07243V1.07227Z" fill="black"/>
<path fill-rule="evenodd" clip-rule="evenodd" d="M30.1064 10.0791V18.66H31.9704H33.8345V10.0791V1.49835H31.9704H30.1064V10.0791Z" fill="black"/>
<path fill-rule="evenodd" clip-rule="evenodd" d="M36.5801 10.0791V18.66H38.4611H40.3421V10.0791V1.49835H38.4611H36.5801V10.0791Z" fill="black"/>
<path fill-rule="evenodd" clip-rule="evenodd" d="M63.9484 6.40295C63.0402 6.54393 62.2538 6.91534 61.6438 7.48966C61.4878 7.63757 61.3523 7.75796 61.3423 7.75796C61.332 7.75796 61.322 7.51717 61.322 7.22482V6.69167H59.4579H57.5938V12.6759V18.66H59.4544H61.3186L61.3322 15.3997C61.3458 12.5693 61.3525 12.1084 61.4 11.8711C61.6576 10.5986 62.2812 9.91756 63.3149 9.78349C64.1859 9.67001 64.9757 10.093 65.3519 10.8702C65.5858 11.362 65.5722 11.1041 65.5824 15.0764L65.596 18.66H67.4736H69.3546V15.4857C69.3546 12.0981 69.3614 11.964 69.524 11.4205C69.7748 10.5984 70.3171 10.0345 71.0525 9.83504C71.3711 9.74907 71.9473 9.75598 72.2354 9.85217C72.9674 10.093 73.4555 10.7017 73.5878 11.5409C73.6114 11.6853 73.6251 12.9717 73.6251 15.2105V18.66H75.4892H77.3567L77.3465 14.5571L77.3363 10.4576L77.2584 10.0862C77.0279 8.97875 76.55 8.11208 75.7976 7.43794C75.2553 6.9496 74.5605 6.59878 73.7945 6.43029C73.3946 6.34085 72.2627 6.34085 71.7949 6.42683C71.1069 6.5576 70.4223 6.84304 69.8427 7.23849C69.5172 7.45853 68.9649 7.96417 68.7954 8.20151C68.7412 8.27711 68.687 8.3425 68.6734 8.3425C68.6632 8.3425 68.5921 8.2496 68.5108 8.13267C68.1311 7.58585 67.6093 7.1456 66.9687 6.8292C66.2672 6.48184 65.6402 6.34431 64.7622 6.35123C64.4844 6.35469 64.1184 6.37528 63.9488 6.40278L63.9484 6.40295Z" fill="black"/>
<path fill-rule="evenodd" clip-rule="evenodd" d="M93.5019 6.36867C92.3529 6.54408 91.4921 6.93607 90.7803 7.60329L90.5364 7.83371V7.26284V6.69198H88.6554H86.7744V12.6762V18.6603H88.6554H90.5364V15.6407C90.5364 13.756 90.55 12.5144 90.5703 12.3321C90.6787 11.4448 90.9397 10.8153 91.3838 10.3718C91.7803 9.97634 92.2853 9.78018 92.9259 9.77342C93.5394 9.76651 93.9325 9.92478 94.3359 10.3341C94.6274 10.6299 94.79 10.9257 94.9155 11.3865C94.9934 11.6616 94.9934 11.665 95.0036 15.1594L95.0138 18.6605H96.8745H98.7386V14.9015C98.7386 11.0599 98.725 10.6437 98.6031 10.0281C98.2642 8.33589 97.2102 7.07031 95.7392 6.59234C95.1833 6.41001 94.9732 6.37904 94.2649 6.36537C93.9023 6.35846 93.56 6.36191 93.5024 6.36883L93.5019 6.36867Z" fill="black"/>
<path fill-rule="evenodd" clip-rule="evenodd" d="M106.499 6.40301C105.529 6.49591 104.767 6.69882 103.991 7.07369C102.208 7.9369 101.022 9.4777 100.629 11.4415C100.561 11.7888 100.551 11.9264 100.551 12.6934C100.554 13.4912 100.561 13.5841 100.646 13.9865C100.849 14.9529 101.262 15.8712 101.798 16.5453C103.14 18.2305 105.241 19.1178 107.533 18.9664C109.62 18.8255 111.495 17.7559 112.542 16.0981C113.67 14.3098 113.816 11.8644 112.904 9.93508C112.315 8.67625 111.308 7.67897 110.007 7.04964C108.973 6.55092 107.604 6.29991 106.499 6.40301H106.499ZM107.736 9.66332C108.393 9.84911 109.01 10.3099 109.39 10.9083C109.698 11.3932 109.851 11.8919 109.878 12.5213C109.919 13.436 109.641 14.2477 109.081 14.8497C108.871 15.0766 108.444 15.4171 108.414 15.3861C108.407 15.3792 108.397 15.1488 108.39 14.8772L108.38 14.3785L107.983 14.3681C107.61 14.3612 107.583 14.3542 107.583 14.2925C107.583 14.2546 107.593 14.2236 107.604 14.2236C107.712 14.2236 108.132 14.1377 108.217 14.0963C108.417 14.0034 108.441 13.7284 108.258 13.6114C108.22 13.5874 107.807 13.4291 107.336 13.2641C106.865 13.0956 106.404 12.9271 106.309 12.8892C106.024 12.7723 105.851 12.7619 105.743 12.8479C105.669 12.9098 105.651 12.9477 105.651 13.0748C105.651 13.2743 105.682 13.2916 106.475 13.5701L107.099 13.7868L107.061 13.8832L107.027 13.9795L106.922 13.9176C106.807 13.8455 105.892 13.5703 105.77 13.5703C105.587 13.5703 105.475 13.9072 105.614 14.0482C105.651 14.0861 105.855 14.1721 106.072 14.2408C106.288 14.3062 106.465 14.3715 106.465 14.3783C106.465 14.3852 106.288 14.3852 106.072 14.3748C105.594 14.3542 105.546 14.3679 105.57 14.4918C105.577 14.5433 105.573 14.7601 105.56 14.9732L105.533 15.3584L105.295 15.1761C104.79 14.7841 104.384 14.1444 104.221 13.484C104.116 13.0575 104.116 12.2665 104.221 11.8847C104.363 11.3515 104.523 11.0215 104.835 10.6293C105.204 10.1616 105.838 9.77301 106.465 9.63186C106.749 9.56648 107.454 9.58377 107.736 9.66283L107.736 9.66332Z" fill="black"/>
<path fill-rule="evenodd" clip-rule="evenodd" d="M106.935 10.9181C106.83 11.0281 106.82 11.0764 106.87 11.2105C106.911 11.3205 107.026 11.379 107.565 11.5648C108.148 11.7608 108.274 11.7573 108.362 11.5442C108.416 11.4101 108.382 11.2828 108.28 11.2139C108.162 11.1349 107.243 10.8185 107.131 10.8185C107.07 10.8185 106.999 10.8564 106.935 10.9183V10.9181Z" fill="black"/>
<path fill-rule="evenodd" clip-rule="evenodd" d="M105.74 11.269C105.621 11.3619 105.618 11.5648 105.73 11.6714C105.838 11.7745 107.95 12.5381 108.129 12.5381C108.241 12.5381 108.397 12.3661 108.397 12.2457C108.397 12.0599 108.289 12.0015 107.33 11.6645C106.828 11.4856 106.326 11.3102 106.221 11.269C105.977 11.1796 105.855 11.1761 105.74 11.269Z" fill="black"/>
<path fill-rule="evenodd" clip-rule="evenodd" d="M105.718 12.0916C105.627 12.1844 105.627 12.401 105.718 12.487C105.806 12.5695 107.989 13.3641 108.124 13.3641C108.223 13.3641 108.358 13.2231 108.382 13.0992C108.419 12.9134 108.287 12.8275 107.63 12.5936C107.314 12.4836 106.83 12.3081 106.555 12.2083C106.01 12.0054 105.827 11.9814 105.718 12.0914V12.0916Z" fill="black"/>
<path fill-rule="evenodd" clip-rule="evenodd" d="M42.8848 10.3441C42.8848 12.4421 42.8984 14.2029 42.9187 14.478C42.9932 15.5407 43.2508 16.3558 43.7525 17.1194C44.41 18.1236 45.4471 18.7633 46.7214 18.956C47.2229 19.0316 48.1109 19.0075 48.5719 18.9044C49.4701 18.7084 50.2631 18.306 50.846 17.7488L51.0867 17.5184V18.0893V18.6602H52.9677H54.8487V12.676V6.6918H52.9677H51.0867V9.72514C51.0867 11.7164 51.073 12.8685 51.0494 13.0714C50.8528 14.6982 50.0292 15.5683 48.6803 15.5751C48.0973 15.5785 47.6703 15.4066 47.2908 15.0179C46.9045 14.6224 46.7078 14.1718 46.6469 13.515C46.6266 13.288 46.613 11.878 46.613 9.91406V6.69147H44.7489H42.8848V10.3439V10.3441Z" fill="black"/>
<path fill-rule="evenodd" clip-rule="evenodd" d="M80.0957 12.6758V18.66H81.9767H83.8577V12.6758V6.69147H81.9767H80.0957V12.6758Z" fill="black"/>
<path fill-rule="evenodd" clip-rule="evenodd" d="M23.7489 12.5314L25.7573 13.4027C25.7045 13.5252 25.6424 13.6466 25.6117 13.8204C25.3591 13.5382 25.1564 13.4878 24.738 13.348C24.413 13.2393 24.0487 13.0794 23.7489 12.9871C23.7442 12.994 23.7395 12.9977 23.7383 13.0099L23.713 13.1205C23.6939 13.347 23.6893 14.2745 23.7489 14.3685L24.5369 14.6923C24.5413 14.6849 24.5531 14.7052 24.5607 14.7099L23.7489 14.7056C23.6719 14.8148 23.7153 17.39 23.7141 17.714C23.7135 17.8785 23.6955 17.9696 23.7383 18.1142C23.7403 18.1206 23.7443 18.1321 23.7489 18.1402L24.1621 18.2705L24.1676 18.6954H26.989L26.9894 18.2397C27.1036 18.1926 27.2068 18.1758 27.3132 18.132C27.424 18.0864 27.5006 18.0299 27.5928 17.9847V14.7093L26.6866 14.704L26.6863 14.3746L27.5928 14.1972V12.7842C26.9486 12.551 26.3002 12.2218 25.6675 11.9518C25.3375 11.811 25.0193 11.6802 24.693 11.5353C24.3635 11.389 24.1271 11.224 23.7489 11.1364C23.7003 11.1968 23.7127 11.3613 23.7137 11.4386C23.7154 11.6063 23.6815 12.4138 23.7489 12.5311V12.5314Z" fill="#FFCC00"/>
<path fill-rule="evenodd" clip-rule="evenodd" d="M23.7491 8.95523C24.03 9.031 24.4248 9.22732 24.7023 9.35283C25.0149 9.49414 25.328 9.62245 25.6409 9.76953C25.9407 9.91051 27.3406 10.5487 27.593 10.565V9.19208C27.2801 9.06213 26.9592 8.89973 26.6398 8.75858C26.3174 8.61611 25.9896 8.50773 25.6739 8.36971C25.3384 8.22296 23.9761 7.58309 23.7491 7.53928C23.6913 7.64749 23.6884 8.7095 23.7213 8.87469C23.7356 8.94634 23.7236 8.91126 23.7491 8.95507V8.95523Z" fill="#FFCC00"/>
<path fill-rule="evenodd" clip-rule="evenodd" d="M23.7503 10.795C24.0866 10.8978 24.4034 11.0625 24.7154 11.1987C25.0278 11.3351 25.3445 11.4752 25.6571 11.6136C25.9999 11.7654 27.2877 12.3737 27.5943 12.3956V11.0352L25.6629 10.2052C25.3013 10.0489 23.999 9.42946 23.7503 9.37906C23.6886 9.46536 23.6914 10.7001 23.7503 10.7952V10.795Z" fill="#FFCC00"/>
<path fill-rule="evenodd" clip-rule="evenodd" d="M27.5948 8.72885V7.34995C27.1545 7.192 26.7641 6.94461 26.3069 6.78436C25.7001 6.57172 25.2506 6.72226 25.2906 7.36807C25.3229 7.88902 25.8495 8.03759 26.2816 8.21151C26.5715 8.32829 27.3291 8.7048 27.5947 8.72868L27.5948 8.72885Z" fill="#FFCC00"/>
</g>
<defs>
<clipPath id="clip0_31_953">
<rect width="90" height="18" fill="white" transform="translate(23.5 1)"/>
</clipPath>
</defs>
</svg>
