<svg width="20" height="21" viewBox="0 0 20 21" fill="none" xmlns="http://www.w3.org/2000/svg">
<path d="M11.1914 8.72266C10.7402 8.72266 10.3906 9.07227 10.3906 9.50391C10.3906 9.93555 10.7402 10.2852 11.1914 10.2852C11.6035 10.2852 11.9531 9.93555 11.9531 9.50391C11.9531 9.07227 11.6035 8.72266 11.1914 8.72266ZM5.72266 8.72266C5.27148 8.72266 4.92188 9.07227 4.92188 9.50391C4.92188 9.93555 5.27148 10.2852 5.72266 10.2852C6.13477 10.2852 6.48438 9.93555 6.48438 9.50391C6.48438 9.07227 6.13477 8.72266 5.72266 8.72266Z" fill="#0052A8"/>
<path d="M17.4607 7.2383C16.5212 5.94924 15.2087 5.08791 13.7693 4.69924V4.70119C13.4353 4.3301 13.0583 3.9883 12.6365 3.68361C9.43919 1.35939 4.95091 2.06838 2.61693 5.26564C0.736067 7.8633 0.816146 11.3574 2.73411 13.8399L2.74974 16.4297C2.74974 16.4922 2.7595 16.5547 2.77904 16.6133C2.88255 16.9434 3.23411 17.125 3.56224 17.0215L6.03489 16.2422C6.68919 16.4746 7.36497 16.6074 8.03685 16.6446L8.02708 16.6524C9.76732 17.9199 12.0486 18.3008 14.1404 17.6094L16.6228 18.418C16.6853 18.4375 16.7497 18.4492 16.8161 18.4492C17.1618 18.4492 17.4411 18.1699 17.4411 17.8242V15.2071C19.1618 12.8711 19.2068 9.6426 17.4607 7.2383ZM6.30833 14.8555L6.07396 14.7578L4.14036 15.3633L4.12083 13.3321L3.96458 13.1563C2.31224 11.1406 2.20286 8.23635 3.74974 6.10549C5.63255 3.52346 9.24193 2.95314 11.8161 4.81643C14.3982 6.69338 14.9704 10.2969 13.1052 12.8633C11.5408 15.0098 8.73997 15.8028 6.30833 14.8555ZM16.1716 14.5235L16.0154 14.7188L16.0349 16.75L14.1208 16.1055L13.8865 16.2031C12.7927 16.6094 11.6267 16.6426 10.5466 16.3399L10.5427 16.3379C11.9861 15.8946 13.2947 14.9961 14.238 13.7031C15.7302 11.6465 15.9724 9.06252 15.1052 6.85939L15.1169 6.86721C15.5661 7.18947 15.9783 7.59182 16.3279 8.07814C17.7458 10.0235 17.6658 12.6719 16.1716 14.5235Z" fill="#0052A8"/>
<path d="M8.45703 8.72266C8.00586 8.72266 7.65625 9.07227 7.65625 9.50391C7.65625 9.93555 8.00586 10.2852 8.45703 10.2852C8.86914 10.2852 9.21875 9.93555 9.21875 9.50391C9.21875 9.07227 8.86914 8.72266 8.45703 8.72266Z" fill="#0052A8"/>
</svg>
