<svg width="48" height="48" viewBox="0 0 48 48" fill="none" xmlns="http://www.w3.org/2000/svg">
<path d="M18 22C19.5823 22 21.129 21.5308 22.4446 20.6518C23.7602 19.7727 24.7855 18.5233 25.391 17.0615C25.9965 15.5997 26.155 13.9911 25.8463 12.4393C25.5376 10.8874 24.7757 9.46197 23.6569 8.34315C22.538 7.22433 21.1126 6.4624 19.5607 6.15372C18.0089 5.84504 16.4003 6.00347 14.9385 6.60897C13.4767 7.21447 12.2273 8.23985 11.3482 9.55544C10.4692 10.871 10 12.4178 10 14C10 16.1217 10.8429 18.1566 12.3431 19.6569C13.8434 21.1572 15.8783 22 18 22ZM34 26C35.1867 26 36.3467 25.6481 37.3334 24.9888C38.3201 24.3295 39.0892 23.3925 39.5433 22.2961C39.9974 21.1997 40.1162 19.9934 39.8847 18.8295C39.6532 17.6656 39.0818 16.5965 38.2426 15.7574C37.4035 14.9182 36.3344 14.3468 35.1705 14.1153C34.0067 13.8838 32.8003 14.0026 31.7039 14.4567C30.6075 14.9109 29.6705 15.6799 29.0112 16.6666C28.3519 17.6533 28 18.8133 28 20C28 21.5913 28.6321 23.1174 29.7574 24.2426C30.8826 25.3679 32.4087 26 34 26ZM42 40C42.5304 40 43.0391 39.7893 43.4142 39.4142C43.7893 39.0392 44 38.5304 44 38C43.9984 36.1308 43.4729 34.2995 42.4832 32.7138C41.4935 31.1281 40.0792 29.8515 38.4007 29.0289C36.7222 28.2064 34.8468 27.8707 32.9872 28.06C31.1276 28.2493 29.3583 28.9561 27.88 30.1C25.921 28.1487 23.4281 26.8212 20.7156 26.2849C18.0032 25.7485 15.1926 26.0274 12.6385 27.0863C10.0843 28.1452 7.90083 29.9367 6.36348 32.2349C4.82614 34.5331 4.00374 37.235 4 40C4 40.5304 4.21071 41.0392 4.58579 41.4142C4.96086 41.7893 5.46957 42 6 42H30C30.5304 42 31.0391 41.7893 31.4142 41.4142C31.7893 41.0392 32 40.5304 32 40" fill="white"/>
</svg>
