<svg width="48" height="48" viewBox="0 0 48 48" fill="none" xmlns="http://www.w3.org/2000/svg">
<path d="M24 34.5C23.7389 34.5 23.4823 34.4318 23.2556 34.3022L10.125 26.7975C10.0109 26.7316 9.88147 26.697 9.74972 26.697C9.61798 26.6971 9.48857 26.7318 9.37452 26.7978C9.26047 26.8637 9.16581 26.9586 9.10007 27.0727C9.03432 27.1869 8.99981 27.3164 9 27.4481V34.5C8.99978 34.7677 9.07121 35.0306 9.20689 35.2614C9.34256 35.4922 9.53753 35.6825 9.77156 35.8125L23.2716 43.3125C23.4944 43.4363 23.7451 43.5013 24 43.5013C24.2549 43.5013 24.5056 43.4363 24.7284 43.3125L38.2284 35.8125C38.4625 35.6825 38.6574 35.4922 38.7931 35.2614C38.9288 35.0306 39.0002 34.7677 39 34.5V27.4481C39.0002 27.3164 38.9657 27.1869 38.8999 27.0727C38.8342 26.9586 38.7395 26.8637 38.6255 26.7978C38.5114 26.7318 38.382 26.6971 38.2503 26.697C38.1185 26.697 37.9891 26.7316 37.875 26.7975L24.7444 34.3022C24.5177 34.4318 24.2611 34.5 24 34.5Z" fill="white"/>
<path d="M46.4923 17.8593V17.849C46.468 17.6112 46.3873 17.3827 46.2568 17.1824C46.1264 16.9822 45.95 16.816 45.7423 16.6977L24.7423 4.69773C24.5156 4.56816 24.259 4.5 23.9979 4.5C23.7368 4.5 23.4802 4.56816 23.2535 4.69773L2.25353 16.6977C2.02402 16.829 1.83326 17.0185 1.70059 17.2472C1.56792 17.4759 1.49805 17.7355 1.49805 17.9999C1.49805 18.2643 1.56792 18.524 1.70059 18.7527C1.83326 18.9813 2.02402 19.1709 2.25353 19.3021L23.2535 31.3021C23.4802 31.4317 23.7368 31.4998 23.9979 31.4998C24.259 31.4998 24.5156 31.4317 24.7423 31.3021L43.2185 20.7449C43.2471 20.7284 43.2795 20.7198 43.3125 20.7198C43.3454 20.7198 43.3778 20.7286 43.4063 20.7451C43.4349 20.7616 43.4585 20.7854 43.4749 20.814C43.4913 20.8426 43.4999 20.8751 43.4998 20.908V34.4577C43.4998 35.2649 44.1204 35.9577 44.9276 35.998C45.1304 36.0078 45.3331 35.9763 45.5234 35.9054C45.7136 35.8345 45.8876 35.7258 46.0346 35.5857C46.1815 35.4456 46.2986 35.2772 46.3785 35.0905C46.4585 34.9039 46.4998 34.703 46.4998 34.4999V17.9999C46.4997 17.9529 46.4972 17.906 46.4923 17.8593Z" fill="white"/>
</svg>
