<svg width="18" height="20" viewBox="0 0 18 20" fill="none" xmlns="http://www.w3.org/2000/svg">
<path d="M0.339325 15C0.503344 15.2847 0.721865 15.5342 0.982392 15.7344C1.24292 15.9345 1.54034 16.0814 1.85766 16.1665C2.17498 16.2516 2.50596 16.2734 2.83169 16.2305C3.15742 16.1877 3.47151 16.081 3.75599 15.9167L4.12682 15.7025C4.82683 16.3014 5.63144 16.7659 6.50016 17.0725V17.5C6.50016 18.163 6.76355 18.7989 7.23239 19.2678C7.70123 19.7366 8.33712 20 9.00016 20C9.6632 20 10.2991 19.7366 10.7679 19.2678C11.2368 18.7989 11.5002 18.163 11.5002 17.5V17.0725C12.369 16.7654 13.1736 16.3003 13.8735 15.7008L14.246 15.9158C14.8206 16.2474 15.5034 16.337 16.1442 16.1651C16.7849 15.9932 17.3311 15.5738 17.6627 14.9992C17.9942 14.4245 18.0838 13.7417 17.9119 13.101C17.74 12.4602 17.3206 11.914 16.746 11.5825L16.376 11.3692C16.5426 10.4629 16.5426 9.5338 16.376 8.6275L16.746 8.41417C17.0305 8.25001 17.2799 8.03143 17.48 7.77088C17.68 7.51034 17.8268 7.21295 17.9119 6.89568C17.9971 6.57841 18.0189 6.24749 17.9761 5.9218C17.9333 5.59611 17.8268 5.28203 17.6627 4.9975C17.4985 4.71297 17.2799 4.46356 17.0194 4.2635C16.7588 4.06345 16.4614 3.91667 16.1442 3.83155C15.8269 3.74643 15.496 3.72463 15.1703 3.76741C14.8446 3.81018 14.5305 3.91668 14.246 4.08083L13.8752 4.295C13.1745 3.69681 12.3693 3.2332 11.5002 2.9275V2.5C11.5002 1.83696 11.2368 1.20107 10.7679 0.732233C10.2991 0.263392 9.6632 0 9.00016 0C8.33712 0 7.70123 0.263392 7.23239 0.732233C6.76355 1.20107 6.50016 1.83696 6.50016 2.5V2.9275C5.63131 3.23464 4.8267 3.69967 4.12682 4.29917L3.75432 4.08333C3.17969 3.75181 2.49689 3.66214 1.85614 3.83405C1.21539 4.00596 0.669178 4.42536 0.337658 5C0.00613726 5.57464 -0.083532 6.25743 0.0883763 6.89818C0.260285 7.53893 0.679689 8.08515 1.25432 8.41667L1.62432 8.63C1.45775 9.5363 1.45775 10.4654 1.62432 11.3717L1.25432 11.585C0.681154 11.9175 0.26306 12.4635 0.0915705 13.1035C-0.0799195 13.7436 0.00916595 14.4255 0.339325 15ZM9.00016 6.66667C9.65943 6.66667 10.3039 6.86216 10.8521 7.22843C11.4002 7.59471 11.8275 8.1153 12.0798 8.72439C12.332 9.33348 12.3981 10.0037 12.2694 10.6503C12.1408 11.2969 11.8234 11.8908 11.3572 12.357C10.891 12.8232 10.2971 13.1407 9.65046 13.2693C9.00386 13.3979 8.33363 13.3319 7.72455 13.0796C7.11546 12.8273 6.59486 12.4001 6.22859 11.8519C5.86232 11.3037 5.66682 10.6593 5.66682 10C5.66682 9.11594 6.01801 8.2681 6.64314 7.64298C7.26826 7.01786 8.1161 6.66667 9.00016 6.66667Z" fill="#0052A8"/>
</svg>
