<svg width="22" height="20" viewBox="0 0 22 20" fill="none" xmlns="http://www.w3.org/2000/svg">
<path d="M2.75033 2.66665V13.6666H19.2503V2.66665H2.75033ZM2.75033 0.833313H19.2503C19.7366 0.833313 20.2029 1.02647 20.5467 1.37028C20.8905 1.7141 21.0837 2.18042 21.0837 2.66665V13.6666C21.0837 14.1525 20.8912 14.62 20.5428 14.9591C20.2037 15.3075 19.7362 15.5 19.2503 15.5H12.8337V17.3333H14.667V19.1666H7.33366V17.3333H9.16699V15.5H2.75033C2.26449 15.5 1.79699 15.3075 1.45783 14.9591C1.10949 14.62 0.916992 14.1525 0.916992 13.6666V2.66665C0.916992 1.64915 1.73283 0.833313 2.75033 0.833313ZM9.93699 7.18581C10.2212 6.91081 10.6062 6.74581 11.0003 6.74581C11.3945 6.75498 11.7795 6.91081 12.0637 7.19498C12.3387 7.46998 12.5037 7.85498 12.5037 8.24915C12.5037 8.65248 12.3387 9.02831 12.0637 9.31248C11.7795 9.59665 11.3945 9.75248 11.0003 9.75248C10.6062 9.75248 10.2212 9.58748 9.93699 9.31248C9.66199 9.02831 9.49699 8.65248 9.49699 8.24915C9.49699 7.85498 9.66199 7.46998 9.93699 7.18581ZM9.23116 9.99998C9.46027 10.238 9.73504 10.4273 10.039 10.5566C10.343 10.6859 10.67 10.7526 11.0003 10.7526C11.3307 10.7526 11.6576 10.6859 11.9616 10.5566C12.2656 10.4273 12.5404 10.238 12.7695 9.99998C13.237 9.54165 13.5028 8.90915 13.5028 8.24915C13.5028 7.58915 13.237 6.94748 12.7695 6.47998C12.302 6.01248 11.6603 5.74665 11.0003 5.74665C10.3403 5.74665 9.69866 6.01248 9.23116 6.47998C8.76366 6.94748 8.49783 7.58915 8.49783 8.24915C8.49783 8.90915 8.76366 9.54165 9.23116 9.99998ZM5.50033 8.24915C5.93471 7.14427 6.69165 6.19576 7.67261 5.52707C8.65358 4.85838 9.81313 4.50048 11.0003 4.49998C13.5028 4.49998 15.6387 6.05831 16.5003 8.24915C16.069 9.35614 15.3129 10.3067 14.3312 10.9759C13.3495 11.645 12.1884 12.0015 11.0003 11.9983C8.49783 11.9983 6.36199 10.4583 5.50033 8.24915Z" fill="#8C8C8C"/>
</svg>
