<svg width="4" height="18" viewBox="0 0 4 18" fill="none" xmlns="http://www.w3.org/2000/svg">
<path d="M1.16634 2.33333C1.16634 2.79357 1.53944 3.16667 1.99967 3.16667C2.45991 3.16667 2.83301 2.79357 2.83301 2.33333C2.83301 1.8731 2.45991 1.5 1.99967 1.5C1.53944 1.5 1.16634 1.8731 1.16634 2.33333Z" stroke="black" stroke-width="2"/>
<path d="M1.16634 9.00002C1.16634 9.46026 1.53944 9.83335 1.99967 9.83335C2.45991 9.83335 2.83301 9.46026 2.83301 9.00002C2.83301 8.53978 2.45991 8.16669 1.99967 8.16669C1.53944 8.16669 1.16634 8.53978 1.16634 9.00002Z" stroke="black" stroke-width="2"/>
<path d="M1.16634 15.6666C1.16634 16.1269 1.53944 16.5 1.99967 16.5C2.45991 16.5 2.83301 16.1269 2.83301 15.6666C2.83301 15.2064 2.45991 14.8333 1.99967 14.8333C1.53944 14.8333 1.16634 15.2064 1.16634 15.6666Z" stroke="black" stroke-width="2"/>
</svg>
